PathFileType	4	(X/Y/Z)	C:/Users/beibeiliu/ov580/test_trc/User3\out7_training_dense_left.trc
DataRate	CameraRate	NumFrames	NumMarkers	Units	OrigDataRate	OrigDataStartFrame	OrigNumFrames
120	120	24	19	mm	120	63	500
Frame#	Time	ThumbCMC			ThumbMCP			ThumbIP			ThumbTip			IndexMCP			IndexPIP			IndexTip			MiddleMCP			MiddlePIP			MiddleTip			RingMCP			RingPIP			RingTip			PinkyMCP			PinkyPIP			PinkyTip			BackHand1			BackHand2			BackHand3	
		X0	Y0	Z0	X1	Y1	Z1	X2	Y2	Z2	X3	Y3	Z3	X4	Y4	Z4	X5	Y5	Z5	X6	Y6	Z6	X7	Y7	Z7	X8	Y8	Z8	X9	Y9	Z9	X10	Y10	Z10	X11	Y11	Z11	X12	Y12	Z12	X13	Y13	Z13	X14	Y14	Z14	X15	Y15	Z15	X16	Y16	Z16	X17	Y17	Z17	X18	Y18	Z18	
62	0.516667	-100.453	39.2433	50.5243	-86.3616	42.067	21.9304	-76.7785	42.0307	-1.54242	-70.4612	43.0856	-27.3691	-122.119	72.6701	-21.2352	-121.871	80.669	-44.7569	-126.231	85.8336	-72.8763	-140.327	76.9091	-24.7167	-139.547	84.5959	-55.2737	-143.981	86.7792	-84.9793	-160.557	68.5479	-19.521	-158.661	75.0631	-43.4293	-162.49	73.5465	-74.4644	-177.443	54.5243	-5.48859	-181.12	58.1849	-29.2157	-183.605	59.5237	-53.6832	-157.89	64.8097	34.5915	-156.877	60.2178	60.2187	-125.838	64.6731	43.8729	
63	0.525	-102.898	36.2327	47.7012	-85.5695	33.9769	23.3576	-74.1025	31.1561	-1.95699	-67.0696	26.6964	-25.681	-122.72	66.109	-23.3111	-122.789	74.0556	-51.221	-123.673	77.7752	-77.0906	-144.473	72.1703	-28.8709	-143.404	77.4032	-55.2247	-143.994	77.535	-89.1386	-162.176	62.6257	-18.5741	-162.886	68.3469	-47.539	-168.584	66.3631	-74.2029	-178.206	50.0553	-4.8165	-186.308	52.3897	-29.0368	-185.877	52.807	-54.0805	-158.325	62.0334	30.566	-163.441	60.8842	60.5646	-126.547	63.8645	39.2295	
64	0.533333	-106.364	34.5394	44.486	-85.607	25.3583	25.8643	-69.7184	19.3977	-4.17435	-66.0485	10.7876	-22.1399	-124.22	62.7965	-27.4943	-121.48	68.8406	-55.5671	-119.144	69.2998	-77.7365	-143.774	68.5619	-30.5145	-147.134	72.3214	-60.9206	-149.675	70.3468	-92.6959	-167.174	61.0444	-23.158	-168.334	63.8277	-48.5777	-171.264	59.3706	-77.3161	-180.552	47.1191	-9.01666	-188.948	48.5438	-31.9498	-196.514	46.5921	-53.2136	-162.232	61.0158	28.0115	-162.754	58.9189	56.7583	-128.33	59.0863	37.3981	
65	0.541667	-106.882	32.0984	44.4001	-86.1714	21.5963	21.5686	-72.6793	10.4293	3.65846	-64.3469	1.42469	-17.942	-122.439	57.7178	-24.5695	-120.867	62.3075	-56.2432	-118.758	62.435	-83.2319	-144.34	65.0194	-32.6324	-149.636	67.3188	-62.0973	-152.371	64.029	-90.8269	-163.871	57.1416	-26.1131	-169.017	58.7867	-52.9902	-175.339	53.4439	-78.6991	-183.159	45.4358	-13.611	-193.832	43.5639	-33.2248	-193.715	41.8363	-56.7315	-163.415	58.8253	28.112	-166.913	61.4511	52.8352	-132.655	59.7987	37.3445	
66	0.55	-105.172	31.0434	45.1844	-84.3188	19.5721	27.409	-70.6527	7.58097	3.65483	-61.0166	-3.6659	-15.0848	-120.096	55.2984	-25.0143	-116.673	58.6626	-55.3374	-114.361	55.1771	-82.6918	-145.619	62.8457	-34.356	-143.013	63.9449	-59.9314	-147.931	55.8721	-95.284	-164.966	55.0065	-27.3076	-170.828	56.3382	-53.1475	-171.699	49.1419	-77.5228	-184.978	43.496	-10.13	-190.538	40.6401	-33.8029	-199.315	34.7605	-55.9986	-162.497	59.7697	27.0906	-166.559	58.9749	52.0248	-131.471	59.6608	37.4696	
67	0.558333	-104.02	32.0907	45.9956	-85.4999	18.4979	28.6727	-68.3493	6.51754	4.96742	-65.2318	-5.17584	-16.4402	-122.588	54.1392	-26.3042	-116.466	55.1114	-54.8482	-113.546	49.9984	-81.4228	-145.025	58.6201	-33.9274	-143.932	57.8928	-64.2338	-145.758	48.1639	-93.6653	-163.764	52.7044	-27.3347	-166.716	50.3598	-56.6219	-167.776	40.6856	-80.9966	-185.172	42.0918	-15.4534	-191.31	37.3456	-37.8947	-193.138	27.5092	-60.7261	-163.947	60.3257	26.0069	-165.444	58.151	50.9583	-131.737	58.8802	36.8979	
68	0.566667	-104.352	32.3759	48.4242	-84.3957	18.7069	29.6997	-72.4638	7.9489	8.00582	-64.6697	-5.53005	-14.1512	-120.7	55.2668	-28.4055	-117.536	54.1104	-59.6932	-118.471	44.5166	-81.7064	-144.089	58.8808	-34.2578	-143.514	54.7749	-62.2381	-139.936	40.2069	-92.0532	-160.518	51.8807	-25.5574	-163.485	47.9046	-55.0155	-166.892	35.0075	-78.2577	-185.267	41.3464	-13.7109	-186.213	36.2195	-38.3399	-185.262	24.6068	-58.8882	-163.403	59.1864	22.9231	-168.884	59.9935	52.516	-133.776	58.659	36.6494	
69	0.575	-107.974	32.6446	49.1108	-86.3305	18.992	26.7683	-71.0383	7.35744	5.47141	-66.3784	-6.20264	-14.2169	-115.997	57.2628	-27.7008	-115.254	52.8396	-58.9139	-114.946	39.2817	-80.4857	-142.701	60.1201	-36.5558	-141.518	55.4346	-63.1972	-137.414	32.47	-92.1022	-162.297	52.4757	-27.0243	-163.194	48.7698	-54.2453	-159.209	29.659	-77.024	-182.152	42.4967	-15.3682	-181.378	36.143	-39.3378	-181.726	21.2165	-57.7336	-165.261	59.787	27.0754	-169.71	57.5842	56.4064	-133.555	59.4541	38.8649	
70	0.583333	-104.462	32.5245	49.9592	-89.8988	18.4284	28.212	-72.5495	5.23073	5.44159	-69.5845	-6.76564	-16.7275	-114.236	59.5889	-26.0332	-108.993	56.4827	-53.2762	-110.767	34.6933	-79.2291	-136.853	61.3707	-32.4093	-137.406	54.9525	-62.8624	-129.925	27.6744	-85.4587	-160.062	54.7216	-25.6701	-156.084	46.4315	-57.8686	-153.984	20.291	-75.9117	-179.455	43.13	-17.1866	-181.086	34.8594	-39.5078	-169.826	13.4988	-57.1768	-165.275	59.5746	24.3181	-164.662	56.7994	55.255	-132.64	59.8602	40.6947	
71	0.591667	-104.418	33.3914	47.0541	-87.2463	17.0388	31.2744	-75.832	5.26553	5.12583	-71.516	-8.6579	-17.3328	-118.808	59.476	-25.7544	-110.76	53.4852	-55.9928	-108.296	30.6821	-75.6473	-137.397	63.2341	-31.291	-132.052	54.1643	-62.574	-127.694	19.6003	-81.4609	-155.282	55.1207	-28.2832	-154.664	48.136	-54.136	-149.204	15.7793	-70.8871	-176.651	41.2059	-13.0675	-172.835	33.2562	-40.8873	-162.485	9.82283	-55.3961	-164.298	58.6579	22.9542	-167.721	56.9636	53.4665	-130.021	61.347	39.9368	
72	0.6	-104.632	33.422	51.8413	-87.7229	17.8977	29.6759	-72.5707	5.4987	5.22639	-76.8573	-5.98452	-18.7804	-117.738	62.4752	-25.312	-112.212	56.4198	-54.9123	-105.386	33.1596	-71.6522	-138.762	64.5943	-34.4075	-134.515	51.9351	-64.6334	-128.053	19.8408	-76.5814	-155.808	56.5592	-28.0908	-150.61	46.6096	-57.3466	-142.589	15.5065	-66.9574	-171.043	42.8745	-14.2553	-170.305	34.5775	-41.5942	-161.598	8.28972	-53.809	-166.357	59.7239	25.565	-167.807	56.9703	56.2425	-134.014	61.6308	42.0532	
73	0.608333	-106.748	35.452	51.4456	-90.0396	21.1374	25.5024	-75.6979	7.14377	-0.0685015	-76.5665	-6.369	-19.2279	-115.983	64.8021	-22.7881	-108.211	58.5651	-55.1353	-106.373	30.235	-70.2094	-135.289	66.2006	-32.031	-132.451	56.3585	-61.9635	-125.528	17.3549	-73.2879	-153.205	58.0849	-25.9906	-147.363	45.5557	-57.199	-141.184	13.6812	-62.7415	-170.155	45.2372	-18.7919	-168.635	33.9415	-43.6503	-153.062	8.75899	-48.9513	-162.372	60.1668	22.9093	-172.121	56.1134	50.1474	-134.868	62.9844	39.8576	
74	0.616667	-109.153	36.8826	49.1329	-87.0582	20.8008	26.6412	-77.265	7.40068	-1.36668	-78.1997	-5.65191	-20.849	-117.235	66	-23.4695	-111.203	59.0257	-54.5124	-101.878	31.579	-67.1114	-135.166	68.6364	-34.3269	-130.597	56.0119	-62.4083	-120.214	21.2702	-70.662	-151.779	58.6512	-25.3879	-148.629	45.089	-58.5984	-141.141	18.0543	-60.7928	-172.012	45.2257	-18.1945	-165.15	37.9794	-41.0572	-151.696	11.7598	-47.8935	-167.175	57.4461	25.1108	-168.893	57.988	53.2553	-134.49	64.1532	41.5011	
75	0.625	-105.337	37.7145	48.6876	-89.1337	20.7532	24.8691	-76.6889	8.47596	1.08229	-81.354	-5.16815	-21.5192	-119.413	67.9452	-23.4104	-111.118	57.7522	-55.5322	-99.6617	32.1002	-65.2153	-134.49	70.0626	-32.3834	-129.799	57.6521	-62.7109	-120.445	18.5112	-67.7663	-154.128	59.2017	-28.7963	-144.903	48.5487	-56.8376	-138.499	13.0382	-58.5614	-169.048	45.2585	-15.992	-165.446	38.8334	-43.0722	-148.948	14.0347	-48.9384	-161.933	60.9674	20.97	-168.831	57.1464	54.467	-137.206	65.3866	43.7685	
76	0.633333	-103.737	37.7752	46.4192	-87.3206	20.2975	25.5968	-81.1409	8.14592	-1.74808	-82.8412	-5.33044	-23.9818	-112.643	69.3392	-21.1974	-105.555	60.5773	-54.4318	-101.809	32.3571	-63.968	-133.281	71.409	-34.3073	-129.058	57.9511	-63.3913	-118.588	22.4291	-67.5651	-149.472	61.6306	-26.94	-146.997	47.2511	-58.0738	-140.08	17.6419	-58.5552	-169.632	48.5812	-18.5888	-163.525	41.3584	-43.1405	-148.277	12.7727	-50.8851	-162.77	60.2233	25.0969	-171.933	58.7869	49.5064	-135.705	67.3416	39.4897	
77	0.641667	-108.129	37.3706	47.8326	-90.3492	20.5779	23.4734	-79.3757	5.59875	-1.57256	-85.0846	-5.6261	-22.7358	-115.336	68.3564	-22.6322	-106.529	59.408	-55.2118	-101.252	29.0793	-64.6443	-131.366	71.414	-32.7399	-125.648	59.5613	-61.7922	-121.319	21.6021	-66.1181	-150.271	61.2752	-29.5838	-146.403	46.217	-57.8702	-138.186	14.7138	-57.9475	-166.463	50.3031	-19.143	-160.08	41.0948	-44.5029	-148.754	17.7978	-48.8856	-164.196	63.7783	22.5104	-170.635	57.9062	51.0087	-135.918	67.3495	39.385	
78	0.65	-103.924	37.2318	49.3636	-89.1337	20.8874	21.6919	-81.03	6.77365	-1.56127	-88.9781	-3.78158	-23.185	-113.713	67.8732	-24.9983	-105.045	60.7233	-53.8778	-100.063	31.7898	-63.6211	-135.42	69.7051	-31.1902	-125.183	55.482	-64.4561	-117.555	20.6929	-65.9755	-150.409	61.1791	-26.5042	-147.383	47.7667	-58.0982	-139.041	18.8616	-59.7584	-167.383	47.6174	-15.7268	-159.144	40.0631	-45.0509	-149.174	16.0221	-50.8323	-160.754	61.0838	25.0608	-168.297	58.1136	49.738	-131.89	65.5381	41.1507	
79	0.658333	-105.459	36.7656	47.2642	-87.9619	19.8835	24.0782	-76.8613	5.23684	-1.26478	-85.6855	-5.87659	-23.7537	-114.626	66.9469	-23.1945	-106.904	56.523	-56.3313	-99.0246	31.7498	-64.5322	-134.34	69.698	-33.235	-124.988	59.3533	-62.2025	-121.3	21.8949	-66.6976	-148.723	63.0451	-31.0347	-147.484	48.6728	-57.4162	-137.818	19.3844	-60.416	-167.228	49.1657	-17.4825	-163.27	42.5892	-43.92	-151.489	17.4865	-50.7888	-162.614	60.867	24.5049	-166.865	61.3503	49.4944	-132.396	67.4946	40.4444	
80	0.666667	-106.815	37.2412	47.4829	-85.8493	19.7829	28.4187	-79.3801	7.68893	-0.053979	-85.8195	-4.97467	-19.9256	-112.69	69.3374	-26.2694	-105.862	57.9035	-56.389	-96.6098	29.8404	-63.9101	-133.206	71.0678	-32.8037	-126.592	59.4438	-64.301	-119.502	24.2919	-67.6915	-148.077	62.8715	-27.2289	-144.395	53.6926	-55.7693	-135.844	19.577	-59.842	-170.027	51.0262	-20.7861	-161.035	44.0221	-41.9593	-153.378	17.8475	-52.2387	-163.045	65.2469	19.3914	-164.741	60.7908	50.7676	-131.656	67.1366	41.7467	
81	0.675	-102.69	38.1364	50.0912	-85.909	21.4885	26.14	-76.7976	9.33957	-0.0350795	-84.5032	-3.0452	-20.6477	-111.115	70.665	-22.5224	-106.181	64.3706	-53.3803	-100.53	33.8441	-64.8385	-129.547	74.439	-31.6967	-122.828	64.6762	-63.0389	-123.178	27.3405	-70.0519	-150.645	65.2135	-26.7357	-148.678	57.2694	-55.985	-136.877	22.7542	-61.4955	-165.355	53.3438	-19.805	-161.388	46.4419	-43.4805	-155.435	18.1826	-53.5803	-163.279	65.1591	22.6742	-169.271	60.9474	49.5954	-131.918	67.4027	41.1776	
82	0.683333	-103.719	41.2515	49.1823	-88.5854	25.7308	28.0032	-78.9621	13.7036	-2.72005	-88.2114	5.47423	-23.9898	-109.946	78.1021	-20.8654	-102.983	72.5216	-51.4418	-101.153	44.4236	-65.1771	-131.77	79.8192	-26.7231	-124.689	70.2695	-62.6655	-122.702	34.3695	-70.4963	-150.477	72.1666	-25.9491	-149.73	63.6296	-54.974	-137.37	33.2738	-62.8446	-168.452	56.5335	-14.6826	-165.142	52.5172	-43.1837	-156.997	27.5473	-53.216	-159.036	70.4409	22.5922	-165.93	65.2229	52.5276	-133.522	71.3387	45.0108	
83	0.691667	-106.941	43.0062	50.6338	-87.0159	28.5137	24.3332	-82.686	20.1766	-4.47748	-90.9393	11.3486	-28.5215	-110.631	83.989	-18.0217	-105.502	79.8393	-50.6959	-100.588	53.7602	-65.5344	-134.859	89.293	-28.585	-129.938	80.4333	-59.6964	-125.401	46.9267	-70.4029	-151.202	79.0834	-22.808	-149.927	72.6645	-53.4875	-142.532	40.1198	-63.5907	-171.265	63.9755	-15.1179	-168.738	59.7402	-41.8779	-154.637	36.0722	-53.6864	-162.785	73.8628	24.634	-169.595	66.5653	53.8217	-132.259	75.1943	45.182	
84	0.7	-105.536	47.3639	45.2533	-90.0126	32.4653	18.1979	-82.2286	23.2161	-10.1937	-95.0743	16.2101	-32.5112	-113.601	90.1576	-17.3518	-109.861	83.8337	-52.7373	-102.764	61.4237	-66.3599	-133.367	95.0784	-27.6839	-132.818	89.4146	-58.131	-125.784	53.0054	-71.7382	-154.575	85.6449	-23.9177	-149.531	76.3324	-55.1726	-142.976	45.9814	-63.6455	-168.876	72.183	-15.9369	-169.042	65.4472	-42.0438	-156.237	43.7579	-54.2106	-165.107	80.8297	26.2219	-168.472	69.1583	57.0386	-131.91	78.8139	46.1535	
85	0.708333	-108.696	46.5596	44.3259	-97.0869	34.3718	14.3779	-92.2456	25.4319	-12.786	-100.993	18.7408	-37.1723	-119.804	91.5648	-21.7854	-115.541	88.1185	-50.785	-110.227	61.7834	-68.1197	-138.417	96.0907	-26.8619	-134.417	87.7347	-61.462	-130.47	55.0849	-72.6261	-160.049	86.9271	-25.7229	-152.628	78.8813	-55.45	-149.758	45.7719	-64.9114	-175.869	74.1081	-19.6827	-170.413	66.7327	-42.3687	-161.036	39.4472	-56.7849	-168.665	79.1662	27.3258	-169.544	71.838	53.1475	-134.88	77.8986	47.2201	
